# xmcd CD database file
#
# Track frame offsets:
#	150
#	38416
#	68236
#	93853
#	117281
#	143051
#	159262
#	183393
#	199566
#	223229
#	245945
#
# Disc length: 3712 seconds
#
# Revision: 0
# Processed by: cddbd v1.5.2PL0 Copyright (c) Steve Scherf et al.
# Submitted via: CDex 1.51
#
DISCID=970e7e0b
DTITLE=Carsten Dahl Trio Featuring Bob Rockwell - God Bless The Child
DYEAR=2006
DGENRE=Jazz
TTITLE0=Love For Sale
TTITLE1=Cry Me A River
TTITLE2=I Love Paris
TTITLE3=Down With It
TTITLE4=St. James Infirmary
TTITLE5=Cariba
TTITLE6=You And Night And The Music
TTITLE7=Crying The Blues
TTITLE8=Duid Deed
TTITLE9=God Bless The Child
TTITLE10=Just One Of Those Things
EXTD=YEAR: 2006
EXTT0=
EXTT1=
EXTT2=
EXTT3=
EXTT4=
EXTT5=
EXTT6=
EXTT7=
EXTT8=
EXTT9=
EXTT10=
PLAYORDER=
